:SAMPLES-PER-SECOND 30
:FULLY-SPECIFIED
:DEGREES
112
root  -10.1148 40.3254 5.89544 -176.915 -39.5432 176.687
RightUpLeg  -17.2386 2.7042 -4.79475
RightLeg  15.8934 10.3979 2.70091
RightFoot  1.80359 0.0504107 -0.330651
RightToes  -2.9104e-010 0 -3.6325e-017
Spine  15.4406 0.481579 4.12565
Spine1  18.3047 4.18864 -8.69616
HEad  -6.12362 13.5522 8.40741
LeftShoulder1  9.34078 -14.5069 -45.2032
LeftArm  -8.20275 11.6858 -24.6379
LeftForeArm  35.1343 -31.7258 -4.99356
LeftHand  -0.244104 0.0205437 5.32207
RightShoulder  4.51568 10.3451 26.549
RightArm  -4.08049 53.634 33.3613
RightForeArm  -1.80833 64.1858 24.6419
RightHand  -0.317944 2.06155 -5.13593
LeftUpLeg  -3.95428 18.3202 8.75312
LeftLeg  13.6057 27.5184 1.71595
LeftFoot  -0.884644 0.480418 -5.20698
LeftToes  -1.62803e-010 -2.57217e-011 -2.5681e-011
113
root  -10.2027 40.331 5.74306 -176.706 -38.1134 176.754
RightUpLeg  -17.5199 3.6509 -4.63356
RightLeg  15.9967 10.703 2.80145
RightFoot  1.65878 0.0663386 -0.482581
RightToes  -2.9104e-010 0 -3.6325e-017
Spine  15.0573 0.363503 3.62966
Spine1  18.5235 3.57102 -7.53946
HEad  -6.12759 15.1902 8.24166
LeftShoulder1  9.35549 -14.471 -45.3713
LeftArm  -8.42112 11.3812 -24.8507
LeftForeArm  34.6205 -32.4168 -5.18581
LeftHand  -0.244104 0.0205437 5.32207
RightShoulder  4.45889 10.1395 26.6278
RightArm  -6.42931 52.7958 31.5221
RightForeArm  -1.69811 64.2676 24.7334
RightHand  -0.301988 1.97917 -4.9357
LeftUpLeg  -3.44306 18.2278 8.99858
LeftLeg  13.4418 28.9178 1.62442
LeftFoot  -1.06828 0.494594 -5.46091
LeftToes  -1.62803e-010 -2.57217e-011 -2.5681e-011
114
root  -10.2761 40.3301 5.60861 -176.567 -37.1875 176.769
RightUpLeg  -17.6747 4.26018 -4.57802
RightLeg  16.1941 10.8908 2.93099
RightFoot  1.40433 0.0693178 -0.534566
RightToes  -2.9104e-010 0 -3.6325e-017
Spine  14.9491 0.151903 3.22247
Spine1  18.6785 2.87638 -6.41218
HEad  -6.36279 16.4981 8.12502
LeftShoulder1  9.35239 -14.4609 -45.382
LeftArm  -8.69638 11.01 -25.2082
LeftForeArm  34.4484 -33.3135 -5.41243
LeftHand  -0.244104 0.0205437 5.32207
RightShoulder  4.39444 9.89925 26.7374
RightArm  -9.20947 51.8585 29.368
RightForeArm  -1.20025 64.5007 24.9773
RightHand  -0.28558 2.03914 -4.64415
LeftUpLeg  -3.04765 18.0952 9.13188
LeftLeg  13.359 29.8677 1.61836
LeftFoot  -1.25347 0.506681 -5.66635
LeftToes  -1.62803e-010 -2.57217e-011 -2.5681e-011
115
root  -10.338 40.3288 5.48417 -176.427 -36.5299 176.739
RightUpLeg  -17.789 4.72256 -4.55554
RightLeg  16.3782 10.9811 3.03336
RightFoot  1.20999 0.0798701 -0.65094
RightToes  -2.9104e-010 0 -3.6325e-017
Spine  14.902 -0.0509856 2.91092
Spine1  18.7878 2.23251 -5.37377
HEad  -6.50489 17.581 7.92188
LeftShoulder1  9.35101 -14.495 -45.2857
LeftArm  -8.78033 10.5879 -25.598
LeftForeArm  34.5508 -34.1828 -5.62162
LeftHand  -0.244104 0.0205437 5.32207
RightShoulder  4.36902 9.72108 26.9962
RightArm  -12.2905 50.786 26.851
RightForeArm  -0.448937 64.8667 25.3741
RightHand  -0.263583 2.08869 -4.27439
LeftUpLeg  -2.63656 17.6996 9.25234
LeftLeg  13.1196 30.804 1.44623
LeftFoot  -1.39499 0.524575 -5.92965
LeftToes  -1.62803e-010 -2.57217e-011 -2.5681e-011
116
root  -10.3931 40.334 5.36654 -176.193 -36.0157 176.66
RightUpLeg  -17.9577 5.2592 -4.58065
RightLeg  16.5281 10.8622 3.04126
RightFoot  1.08796 0.103248 -0.879573
RightToes  -2.9104e-010 0 -3.6325e-017
Spine  14.7162 -0.204924 2.68154
Spine1  18.9426 1.67732 -4.40924
HEad  -6.48195 18.5605 7.61357
LeftShoulder1  9.33756 -14.516 -45.1632
LeftArm  -8.60126 10.0547 -25.9588
LeftForeArm  34.8238 -34.9016 -5.78745
LeftHand  -0.244104 0.0205437 5.32207
RightShoulder  4.37842 9.62711 27.3148
RightArm  -15.4538 49.5528 24.3001
RightForeArm  0.365135 65.3896 25.9965
RightHand  -0.238795 1.93928 -3.95704
LeftUpLeg  -2.22865 17.0875 9.34454
LeftLeg  12.6222 31.845 1.02966
LeftFoot  -1.40842 0.544471 -6.16555
LeftToes  -1.62803e-010 -2.57217e-011 -2.5681e-011
117
root  -10.4403 40.3442 5.26395 -175.902 -35.6687 176.512
RightUpLeg  -18.1331 5.83283 -4.70125
RightLeg  16.6653 10.5676 2.97366
RightFoot  0.942384 0.121555 -1.06906
RightToes  -2.9104e-010 0 -3.6325e-017
Spine  14.5463 -0.340306 2.52136
Spine1  19.07 1.18055 -3.52523
HEad  -6.43212 19.4399 7.36671
LeftShoulder1  9.31246 -14.5028 -45.0711
LeftArm  -8.40684 9.47731 -26.3194
LeftForeArm  35.364 -35.5943 -5.93445
LeftHand  -0.244104 0.0205437 5.32207
RightShoulder  4.38893 9.56703 27.5563
RightArm  -18.5322 48.1399 21.9378
RightForeArm  1.22624 66.1498 27.0007
RightHand  -0.223362 1.61465 -3.85822
LeftUpLeg  -1.90013 16.4888 9.33308
LeftLeg  12.0454 32.7697 0.570894
LeftFoot  -1.31438 0.556541 -6.25111
LeftToes  -1.62803e-010 -2.57217e-011 -2.5681e-011
118
root  -10.4758 40.3521 5.18099 -175.656 -35.4981 176.335
RightUpLeg  -18.243 6.23054 -4.85866
RightLeg  16.7999 10.3022 2.9201
RightFoot  0.774825 0.131137 -1.1857
RightToes  -2.9104e-010 0 -3.6325e-017
Spine  14.5747 -0.461747 2.46278
Spine1  19.0528 0.761515 -2.77317
HEad  -6.35315 20.0991 7.28528
LeftShoulder1  9.31381 -14.5055 -45.0708
LeftArm  -8.33976 8.99444 -26.6253
LeftForeArm  36.1562 -36.4327 -6.108
LeftHand  -0.244104 0.0205437 5.32207
RightShoulder  4.38443 9.48456 27.7407
RightArm  -21.3979 46.601 19.6012
RightForeArm  2.16929 67.102 28.3908
RightHand  -0.222223 1.33035 -3.97588
LeftUpLeg  -1.66377 15.9899 9.23953
LeftLeg  11.5842 33.4467 0.247079
LeftFoot  -1.21351 0.55973 -6.23429
LeftToes  -1.62803e-010 -2.57217e-011 -2.5681e-011
